<?xml version="1.0" standalone="no"?>
<!DOCTYPE svg PUBLIC "-//W3C//DTD SVG 20010904//EN"
 "http://www.w3.org/TR/2001/REC-SVG-20010904/DTD/svg10.dtd">
<svg version="1.0" xmlns="http://www.w3.org/2000/svg"
 width="1024.000000pt" height="1024.000000pt" viewBox="0 0 1024.000000 1024.000000"
 preserveAspectRatio="xMidYMid meet">
<metadata>
Created by potrace 1.11, written by Peter Selinger 2001-2013
</metadata>
<g transform="translate(0.000000,1024.000000) scale(0.100000,-0.100000)"
fill="#000000" stroke="none">
<path d="M4889 9616 c-2 -2 -54 -6 -115 -10 -60 -4 -119 -8 -130 -10 -10 -2
-46 -7 -79 -10 -67 -8 -278 -42 -340 -56 -22 -5 -55 -11 -73 -15 -140 -24
-503 -135 -697 -213 -407 -164 -840 -415 -1140 -663 -110 -91 -168 -140 -210
-178 -86 -79 -308 -303 -362 -366 -28 -33 -68 -80 -89 -105 -22 -25 -73 -90
-114 -145 -41 -55 -77 -102 -80 -105 -3 -3 -45 -63 -92 -135 -136 -206 -256
-424 -357 -650 -18 -38 -36 -79 -41 -90 -37 -79 -127 -331 -161 -450 -65 -224
-112 -426 -134 -585 -4 -30 -9 -64 -12 -75 -2 -11 -6 -47 -9 -80 -3 -32 -10
-65 -16 -72 -7 -9 -7 -13 1 -13 7 0 10 -4 7 -8 -18 -30 -36 -587 -20 -614 3
-4 0 -8 -6 -8 -6 0 -8 -5 -4 -12 4 -7 9 -39 10 -73 3 -98 13 -206 19 -216 4
-5 0 -9 -7 -9 -8 0 -9 -3 -3 -8 6 -4 12 -25 14 -46 1 -22 5 -49 8 -60 2 -12 6
-41 8 -66 1 -25 6 -53 10 -62 4 -10 5 -24 2 -32 -3 -7 -2 -17 3 -22 4 -5 11
-29 14 -54 3 -25 10 -58 14 -75 5 -16 9 -44 8 -62 -1 -17 1 -29 4 -27 4 4 27
-81 70 -255 5 -19 6 -40 3 -45 -4 -6 -2 -7 3 -3 10 10 46 -112 37 -126 -3 -6
-1 -7 5 -3 7 4 13 1 13 -8 2 -19 4 -26 12 -46 27 -64 55 -150 49 -150 -4 0 -1
-4 6 -9 8 -5 15 -20 15 -35 1 -14 6 -26 10 -26 5 0 5 -4 2 -10 -3 -5 -2 -10 3
-10 5 0 22 -33 37 -72 16 -40 35 -82 42 -94 7 -11 10 -24 6 -27 -3 -4 -2 -7 4
-7 6 0 14 -10 18 -22 10 -30 8 -26 36 -83 13 -27 30 -56 37 -63 11 -12 14 -21
11 -38 0 -4 3 -10 8 -13 18 -12 63 -103 56 -115 -3 -6 -2 -8 2 -4 13 12 55
-64 49 -87 -4 -14 -3 -16 4 -7 7 10 15 4 32 -25 12 -21 21 -40 20 -42 -1 -2 2
-7 7 -10 4 -3 14 -14 22 -23 11 -15 11 -21 0 -35 -12 -16 -12 -17 2 -6 13 11
24 0 74 -75 33 -48 62 -89 65 -92 20 -18 49 -64 44 -71 -3 -5 0 -8 8 -7 7 2
12 -5 12 -14 -1 -10 3 -15 8 -12 5 3 12 -3 15 -15 3 -12 12 -21 19 -21 8 0 14
-4 14 -9 0 -5 16 -28 36 -52 27 -32 32 -44 22 -51 -10 -7 -10 -8 2 -6 18 3 70
-40 70 -59 0 -8 4 -12 8 -9 5 3 15 -6 23 -20 7 -14 21 -30 31 -35 10 -5 18
-16 18 -24 0 -8 7 -15 15 -15 8 0 15 -4 15 -9 0 -4 15 -23 34 -42 19 -18 32
-38 29 -44 -4 -5 -2 -7 2 -2 12 10 66 -43 58 -57 -3 -6 -3 -8 2 -4 11 11 36
-12 28 -25 -3 -6 -1 -7 5 -3 6 4 17 -2 24 -14 7 -11 17 -20 21 -20 5 0 37 -29
73 -64 35 -35 64 -61 64 -58 0 3 9 -3 20 -13 11 -10 17 -22 13 -28 -3 -6 -1
-7 5 -3 6 3 21 -4 34 -17 13 -13 31 -26 41 -30 10 -4 15 -12 12 -17 -4 -6 -3
-9 2 -8 4 2 41 -21 81 -51 52 -39 71 -59 67 -70 -5 -12 -3 -13 6 -4 18 18 41
4 34 -21 -5 -15 -4 -17 3 -7 8 11 14 10 36 -4 22 -15 24 -20 14 -34 -12 -14
-11 -15 5 -2 12 10 21 11 25 5 4 -6 15 -13 25 -17 10 -4 15 -12 12 -17 -4 -6
-3 -9 2 -8 13 3 53 -12 53 -21 0 -4 16 -13 35 -21 19 -7 32 -17 29 -22 -3 -4
2 -8 10 -8 9 0 16 -4 16 -10 0 -5 9 -10 21 -10 11 0 17 -4 14 -10 -3 -5 3 -10
14 -10 12 0 21 -5 21 -11 0 -5 5 -7 10 -4 6 3 13 0 16 -9 3 -8 12 -12 20 -9 8
3 14 1 14 -4 0 -6 18 -18 40 -28 22 -10 40 -22 40 -27 0 -5 5 -6 10 -3 6 3 10
1 10 -4 0 -6 3 -10 8 -9 16 5 72 -33 66 -45 -5 -9 -4 -9 5 -1 13 12 61 -3 61
-19 0 -5 5 -5 10 -2 6 3 10 2 10 -4 0 -5 -6 -12 -12 -14 -10 -4 -10 -6 -1 -6
6 -1 15 3 18 9 5 9 40 -4 55 -20 3 -3 24 -12 48 -20 25 -8 41 -18 38 -25 -3
-8 4 -10 22 -7 21 4 24 2 18 -13 -5 -14 -3 -15 6 -7 14 11 92 -14 84 -27 -2
-3 7 -7 20 -7 13 -1 32 -5 42 -10 9 -4 44 -17 77 -29 39 -15 59 -28 57 -36 -3
-11 -1 -11 9 -2 9 9 18 9 40 -3 16 -8 29 -12 29 -8 0 4 7 1 15 -6 8 -7 15 -9
15 -5 0 4 7 1 17 -6 9 -8 17 -12 17 -10 2 6 146 -33 146 -39 0 -3 14 -7 31 -8
18 -1 37 -6 43 -9 11 -8 28 -12 59 -15 9 -1 17 -5 17 -9 0 -4 9 -5 20 -2 15 4
20 0 21 -13 0 -11 3 -14 6 -6 5 13 35 16 47 5 3 -4 17 -8 29 -10 26 -4 76 -12
97 -17 8 -2 14 -12 13 -22 -1 -18 -1 -18 11 -1 15 20 32 22 39 5 4 -10 6 -10
6 0 1 9 6 10 19 3 9 -5 20 -9 25 -9 4 0 39 -3 78 -7 47 -5 67 -10 58 -16 -9
-6 -10 -9 -2 -9 6 0 14 4 17 9 9 13 47 1 39 -13 -3 -6 0 -6 8 2 7 6 19 12 27
12 12 0 12 -3 1 -18 -11 -14 -10 -13 9 2 12 11 22 15 22 10 0 -5 42 -10 93
-12 56 -1 93 -6 96 -13 2 -7 6 -7 12 2 8 12 11 11 19 -1 9 -13 10 -13 10 0 0
13 1 13 10 0 9 -13 10 -13 10 0 0 10 3 11 8 4 4 -6 15 -9 24 -5 9 3 90 4 178
1 89 -3 164 -3 166 -1 11 12 90 5 102 -9 10 -13 11 -13 6 3 -5 15 1 17 42 18
27 1 75 2 106 3 32 0 58 4 58 7 0 5 64 11 147 13 22 1 39 4 36 8 -2 5 3 8 12
8 10 0 13 -5 9 -12 -5 -8 -1 -8 10 1 9 8 29 16 44 17 15 2 38 6 50 9 15 4 21
2 17 -5 -3 -5 -2 -10 3 -10 6 0 12 6 15 13 4 12 37 19 99 21 14 1 24 4 22 8
-2 3 20 10 48 14 59 9 57 8 78 17 8 4 42 13 75 21 33 8 85 21 115 29 30 9 58
13 61 11 4 -2 9 0 11 6 2 6 17 11 35 13 17 1 29 5 26 9 -4 8 8 10 54 11 12 1
20 5 17 9 -3 4 0 9 5 9 19 2 31 7 108 39 31 14 44 15 53 6 10 -8 11 -8 7 0 -8
14 20 27 35 17 6 -3 9 -2 5 3 -3 5 24 21 59 36 36 15 62 22 59 15 -4 -7 0 -4
8 6 8 9 21 17 28 17 8 0 25 7 37 16 12 8 22 12 22 7 0 -4 4 -3 8 2 12 16 102
56 113 49 5 -3 8 0 7 7 -2 7 2 14 7 14 15 2 49 18 55 25 3 3 23 14 45 25 22
10 60 31 85 46 30 19 48 25 56 18 8 -7 11 -6 10 3 0 7 4 15 9 17 6 3 16 11 24
18 7 8 22 11 35 8 15 -5 17 -4 7 3 -11 8 -10 12 8 21 12 7 26 9 31 6 6 -4 9
-1 8 7 -2 7 5 12 14 12 10 -1 17 1 16 5 -2 18 4 22 17 11 13 -11 14 -10 10 2
-7 18 40 52 57 42 7 -4 8 -3 4 4 -4 7 0 12 10 12 10 0 15 3 11 6 -9 9 62 56
74 49 5 -4 9 1 9 10 0 12 6 15 19 10 11 -3 22 -1 26 4 4 7 -1 8 -12 4 -27 -9
-8 8 71 66 58 42 72 48 85 38 14 -10 14 -10 3 4 -10 13 -9 19 3 29 13 11 18
10 31 -6 14 -18 15 -18 5 2 -9 19 -5 26 32 57 23 19 60 51 81 71 22 19 43 33
47 30 4 -2 11 1 15 7 5 8 3 9 -7 4 -12 -8 -12 -6 0 9 8 9 20 15 27 12 9 -3 11
0 7 11 -4 10 -2 14 5 9 6 -3 13 3 17 14 4 12 12 19 18 17 7 -2 17 6 23 17 6
12 16 20 22 18 7 -1 12 4 12 11 0 18 55 69 64 60 4 -5 6 -3 4 3 -1 6 14 28 35
48 20 21 37 42 37 48 0 5 5 6 10 3 6 -3 10 -1 10 4 0 6 20 31 44 56 25 25 43
45 41 45 -3 0 3 9 12 19 9 11 20 18 25 15 5 -3 7 -2 6 3 -3 8 24 44 85 115 9
12 17 25 17 30 0 5 4 7 8 4 4 -2 13 7 20 22 6 15 22 38 34 52 31 34 102 130
117 158 11 20 15 21 29 10 15 -12 16 -11 4 4 -15 19 -7 42 10 32 7 -4 8 -2 4
4 -9 15 23 64 37 55 5 -3 7 -1 3 5 -6 9 30 82 41 82 2 0 1 -4 -2 -10 -10 -16
1 -11 16 7 10 11 10 14 2 9 -18 -10 -16 5 3 32 9 13 22 21 30 18 7 -3 16 -1
19 5 4 5 1 8 -6 7 -22 -5 -20 21 3 45 13 13 22 30 20 37 -3 8 0 10 8 5 9 -6
11 -4 6 4 -5 7 -1 20 7 29 8 9 46 81 84 160 38 78 73 139 78 135 4 -5 5 -2 1
5 -4 7 -3 18 2 25 6 7 14 28 19 47 7 24 15 35 27 34 12 -2 14 1 6 11 -8 9 -6
23 7 51 10 22 21 40 25 42 4 2 4 10 1 19 -5 12 -3 14 7 8 8 -5 11 -4 6 3 -3 6
-1 23 5 39 6 15 10 30 11 33 0 3 3 10 7 15 4 6 16 38 26 72 10 34 21 60 26 58
4 -3 5 4 2 15 -3 11 -1 20 4 20 5 0 9 8 10 18 3 36 27 112 35 112 5 0 7 4 3 9
-8 14 17 101 28 94 6 -3 7 -1 3 5 -8 13 25 172 35 172 3 0 4 12 1 26 -3 18 -1
25 6 20 6 -4 8 2 4 16 -4 15 -2 19 7 13 10 -6 11 -3 2 14 -7 11 -8 21 -3 21 4
0 9 10 9 23 1 12 3 33 6 47 4 27 19 122 23 155 1 11 3 20 4 20 1 0 4 20 6 45
3 42 11 95 14 95 2 0 10 139 12 197 0 32 5 55 9 52 5 -3 4 7 -2 23 -5 15 -7
29 -2 30 4 2 7 29 6 60 -1 32 -4 146 -7 253 -6 193 -8 238 -20 335 -4 28 -8
68 -11 90 -9 80 -17 140 -21 160 -3 11 -11 56 -19 100 -57 317 -170 682 -310
1000 -33 75 -155 318 -184 365 -11 19 -24 42 -28 50 -17 39 -164 267 -240 372
-164 230 -268 352 -478 563 -120 121 -188 184 -335 309 -47 40 -255 193 -350
258 -304 206 -697 400 -1065 523 -147 50 -425 126 -506 140 -19 3 -68 12 -109
20 -41 8 -92 17 -112 20 -21 3 -55 7 -75 10 -21 3 -49 8 -63 10 -14 2 -56 7
-95 11 -38 4 -86 8 -105 10 -49 6 -596 14 -601 10z"/>
<path d="M670 3966 c0 -2 7 -7 16 -10 8 -3 12 -2 9 4 -6 10 -25 14 -25 6z"/>
<path d="M9310 3359 c0 -5 5 -7 10 -4 6 3 10 8 10 11 0 2 -4 4 -10 4 -5 0 -10
-5 -10 -11z"/>
<path d="M9266 3322 c-3 -5 1 -9 9 -9 8 0 12 4 9 9 -3 4 -7 8 -9 8 -2 0 -6 -4
-9 -8z"/>
<path d="M1115 3020 c-3 -5 -1 -10 4 -10 6 0 11 5 11 10 0 6 -2 10 -4 10 -3 0
-8 -4 -11 -10z"/>
<path d="M1075 2969 c-4 -6 -5 -12 -2 -15 2 -3 7 2 10 11 7 17 1 20 -8 4z"/>
<path d="M1166 2842 c-3 -5 1 -9 9 -9 8 0 12 4 9 9 -3 4 -7 8 -9 8 -2 0 -6 -4
-9 -8z"/>
<path d="M9030 2780 c0 -5 5 -10 11 -10 5 0 7 5 4 10 -3 6 -8 10 -11 10 -2 0
-4 -4 -4 -10z"/>
<path d="M1246 2742 c-3 -5 1 -9 9 -9 8 0 12 4 9 9 -3 4 -7 8 -9 8 -2 0 -6 -4
-9 -8z"/>
<path d="M1294 2662 c4 -3 14 -7 22 -8 9 -1 13 0 10 4 -4 3 -14 7 -22 8 -9 1
-13 0 -10 -4z"/>
<path d="M8910 2642 c0 -5 7 -9 15 -9 8 0 12 4 9 9 -3 4 -9 8 -15 8 -5 0 -9
-4 -9 -8z"/>
<path d="M8916 2593 c-6 -14 -5 -15 5 -6 7 7 10 15 7 18 -3 3 -9 -2 -12 -12z"/>
<path d="M1335 2581 c-3 -5 -2 -12 3 -15 5 -3 9 1 9 9 0 17 -3 19 -12 6z"/>
<path d="M8849 2557 c6 -8 7 -18 3 -22 -4 -5 -1 -5 6 -1 10 6 10 11 1 22 -6 8
-14 14 -16 14 -3 0 0 -6 6 -13z"/>
<path d="M1376 2542 c-3 -5 1 -9 9 -9 8 0 12 4 9 9 -3 4 -7 8 -9 8 -2 0 -6 -4
-9 -8z"/>
<path d="M1414 2458 c-4 -7 -4 -10 1 -6 4 4 15 2 24 -5 14 -11 14 -10 2 6 -16
20 -18 21 -27 5z"/>
<path d="M8816 2462 c-3 -4 4 -9 15 -9 23 -2 25 3 4 10 -8 4 -16 3 -19 -1z"/>
<path d="M1470 2441 c0 -6 4 -13 10 -16 6 -3 7 1 4 9 -7 18 -14 21 -14 7z"/>
<path d="M8786 2442 c-3 -5 1 -9 9 -9 8 0 12 4 9 9 -3 4 -7 8 -9 8 -2 0 -6 -4
-9 -8z"/>
<path d="M1530 2340 c0 -5 5 -10 11 -10 5 0 7 5 4 10 -3 6 -8 10 -11 10 -2 0
-4 -4 -4 -10z"/>
<path d="M8690 2340 c0 -5 5 -10 11 -10 5 0 7 5 4 10 -3 6 -8 10 -11 10 -2 0
-4 -4 -4 -10z"/>
<path d="M8736 2338 c3 -4 11 -5 19 -1 21 7 19 12 -4 10 -11 0 -18 -5 -15 -9z"/>
<path d="M8653 2271 c0 -11 5 -18 9 -15 4 3 5 11 1 19 -7 21 -12 19 -10 -4z"/>
<path d="M8619 2268 c-5 -18 -6 -38 -1 -34 7 8 12 36 6 36 -2 0 -4 -1 -5 -2z"/>
<path d="M1593 2245 c0 -8 4 -12 9 -9 5 3 6 10 3 15 -9 13 -12 11 -12 -6z"/>
<path d="M8653 2215 c0 -8 4 -12 9 -9 5 3 6 10 3 15 -9 13 -12 11 -12 -6z"/>
<path d="M1650 2179 c0 -5 5 -7 10 -4 6 3 10 8 10 11 0 2 -4 4 -10 4 -5 0 -10
-5 -10 -11z"/>
<path d="M1695 2160 c3 -5 8 -10 11 -10 2 0 4 5 4 10 0 6 -5 10 -11 10 -5 0
-7 -4 -4 -10z"/>
<path d="M8530 2099 c0 -5 5 -7 10 -4 6 3 10 8 10 11 0 2 -4 4 -10 4 -5 0 -10
-5 -10 -11z"/>
<path d="M8410 2019 c0 -5 5 -7 10 -4 6 3 10 8 10 11 0 2 -4 4 -10 4 -5 0 -10
-5 -10 -11z"/>
<path d="M8450 2019 c0 -5 5 -7 10 -4 6 3 10 8 10 11 0 2 -4 4 -10 4 -5 0 -10
-5 -10 -11z"/>
<path d="M1875 1969 c-4 -6 -5 -12 -2 -15 2 -3 7 2 10 11 7 17 1 20 -8 4z"/>
<path d="M8394 1942 c4 -3 14 -7 22 -8 9 -1 13 0 10 4 -4 3 -14 7 -22 8 -9 1
-13 0 -10 -4z"/>
<path d="M1856 1902 c-2 -4 -1 -14 4 -22 7 -11 9 -9 7 8 -1 24 -3 26 -11 14z"/>
<path d="M1935 1860 c3 -5 8 -10 11 -10 2 0 4 5 4 10 0 6 -5 10 -11 10 -5 0
-7 -4 -4 -10z"/>
<path d="M1974 1782 c4 -3 14 -7 22 -8 9 -1 13 0 10 4 -4 3 -14 7 -22 8 -9 1
-13 0 -10 -4z"/>
<path d="M8210 1779 c0 -5 5 -7 10 -4 6 3 10 8 10 11 0 2 -4 4 -10 4 -5 0 -10
-5 -10 -11z"/>
<path d="M2050 1739 c0 -5 5 -7 10 -4 6 3 10 8 10 11 0 2 -4 4 -10 4 -5 0 -10
-5 -10 -11z"/>
<path d="M8219 1748 c-5 -18 -6 -38 -1 -34 7 8 12 36 6 36 -2 0 -4 -1 -5 -2z"/>
<path d="M8115 1720 c3 -5 8 -10 11 -10 2 0 4 5 4 10 0 6 -5 10 -11 10 -5 0
-7 -4 -4 -10z"/>
<path d="M8113 1685 c0 -8 4 -15 9 -15 4 0 8 4 8 9 0 6 -4 12 -8 15 -5 3 -9
-1 -9 -9z"/>
<path d="M8076 1678 c3 -5 10 -6 15 -3 13 9 11 12 -6 12 -8 0 -12 -4 -9 -9z"/>
<path d="M8055 1579 c-3 -4 2 -6 10 -5 21 3 28 13 10 13 -9 0 -18 -4 -20 -8z"/>
<path d="M2170 1566 c0 -2 7 -7 16 -10 8 -3 12 -2 9 4 -6 10 -25 14 -25 6z"/>
<path d="M7853 1515 c0 -8 4 -12 9 -9 5 3 6 10 3 15 -9 13 -12 11 -12 -6z"/>
<path d="M7886 1518 c3 -5 10 -6 15 -3 13 9 11 12 -6 12 -8 0 -12 -4 -9 -9z"/>
<path d="M7975 1501 c-3 -5 -2 -12 3 -15 5 -3 9 1 9 9 0 17 -3 19 -12 6z"/>
<path d="M7893 1455 c0 -8 4 -12 9 -9 5 3 6 10 3 15 -9 13 -12 11 -12 -6z"/>
<path d="M2390 1439 c0 -5 5 -7 10 -4 6 3 10 8 10 11 0 2 -4 4 -10 4 -5 0 -10
-5 -10 -11z"/>
<path d="M7750 1416 c0 -2 8 -10 18 -17 15 -13 16 -12 3 4 -13 16 -21 21 -21
13z"/>
<path d="M7795 1411 c-3 -5 -2 -12 3 -15 5 -3 9 1 9 9 0 17 -3 19 -12 6z"/>
<path d="M7833 1395 c0 -8 4 -12 9 -9 4 3 8 9 8 15 0 5 -4 9 -8 9 -5 0 -9 -7
-9 -15z"/>
<path d="M2453 1385 c0 -8 4 -12 9 -9 5 3 6 10 3 15 -9 13 -12 11 -12 -6z"/>
<path d="M7666 1382 c-3 -5 1 -9 9 -9 8 0 12 4 9 9 -3 4 -7 8 -9 8 -2 0 -6 -4
-9 -8z"/>
<path d="M7707 1379 c7 -7 15 -10 18 -7 3 3 -2 9 -12 12 -14 6 -15 5 -6 -5z"/>
<path d="M2495 1351 c-3 -5 -2 -12 3 -15 5 -3 9 1 9 9 0 17 -3 19 -12 6z"/>
<path d="M7736 1342 c-3 -5 1 -9 9 -9 8 0 12 4 9 9 -3 4 -7 8 -9 8 -2 0 -6 -4
-9 -8z"/>
<path d="M7630 1336 c0 -2 8 -10 18 -17 15 -13 16 -12 3 4 -13 16 -21 21 -21
13z"/>
<path d="M7693 1311 c0 -11 5 -18 9 -15 4 3 5 11 1 19 -7 21 -12 19 -10 -4z"/>
<path d="M2609 1277 c6 -8 7 -18 3 -22 -4 -5 -1 -5 6 -1 10 6 10 11 1 22 -6 8
-14 14 -16 14 -3 0 0 -6 6 -13z"/>
<path d="M7615 1260 c3 -5 8 -10 11 -10 2 0 4 5 4 10 0 6 -5 10 -11 10 -5 0
-7 -4 -4 -10z"/>
<path d="M2654 1236 c1 -8 5 -18 8 -22 4 -3 5 1 4 10 -1 8 -5 18 -8 22 -4 3
-5 -1 -4 -10z"/>
<path d="M7535 1220 c-3 -5 -1 -10 4 -10 6 0 11 5 11 10 0 6 -2 10 -4 10 -3 0
-8 -4 -11 -10z"/>
<path d="M7470 1216 c0 -2 8 -10 18 -17 15 -13 16 -12 3 4 -13 16 -21 21 -21
13z"/>
<path d="M2605 1200 c-3 -6 1 -7 9 -4 18 7 21 14 7 14 -6 0 -13 -4 -16 -10z"/>
<path d="M2707 1199 c7 -7 15 -10 18 -7 3 3 -2 9 -12 12 -14 6 -15 5 -6 -5z"/>
<path d="M2795 1181 c-3 -5 -2 -12 3 -15 5 -3 9 1 9 9 0 17 -3 19 -12 6z"/>
<path d="M2836 1158 c3 -5 10 -6 15 -3 13 9 11 12 -6 12 -8 0 -12 -4 -9 -9z"/>
<path d="M7307 1139 c7 -7 15 -10 18 -7 3 3 -2 9 -12 12 -14 6 -15 5 -6 -5z"/>
<path d="M2930 1136 c0 -2 8 -10 18 -17 15 -13 16 -12 3 4 -13 16 -21 21 -21
13z"/>
<path d="M7350 1136 c0 -2 8 -10 18 -17 15 -13 16 -12 3 4 -13 16 -21 21 -21
13z"/>
<path d="M2795 1120 c-3 -5 -1 -10 4 -10 6 0 11 5 11 10 0 6 -2 10 -4 10 -3 0
-8 -4 -11 -10z"/>
<path d="M7226 1122 c-3 -5 1 -9 9 -9 8 0 15 4 15 9 0 4 -4 8 -9 8 -6 0 -12
-4 -15 -8z"/>
<path d="M2855 1100 c-3 -5 -1 -10 4 -10 6 0 11 5 11 10 0 6 -2 10 -4 10 -3 0
-8 -4 -11 -10z"/>
<path d="M3095 1049 c-4 -6 -5 -12 -2 -15 2 -3 7 2 10 11 7 17 1 20 -8 4z"/>
<path d="M7096 1047 c3 -10 9 -15 12 -12 3 3 0 11 -7 18 -10 9 -11 8 -5 -6z"/>
<path d="M2990 1036 c7 -7 13 -7 20 0 6 6 3 10 -10 10 -13 0 -16 -4 -10 -10z"/>
<path d="M7110 1016 c0 -2 8 -10 18 -17 15 -13 16 -12 3 4 -13 16 -21 21 -21
13z"/>
<path d="M7155 1011 c-3 -5 -2 -12 3 -15 5 -3 9 1 9 9 0 17 -3 19 -12 6z"/>
<path d="M3010 1000 c0 -5 5 -10 11 -10 5 0 7 5 4 10 -3 6 -8 10 -11 10 -2 0
-4 -4 -4 -10z"/>
<path d="M7195 991 c-3 -5 -2 -12 3 -15 5 -3 9 1 9 9 0 17 -3 19 -12 6z"/>
<path d="M2990 960 c0 -5 5 -10 11 -10 5 0 7 5 4 10 -3 6 -8 10 -11 10 -2 0
-4 -4 -4 -10z"/>
<path d="M3225 959 c-3 -4 2 -6 10 -5 21 3 28 13 10 13 -9 0 -18 -4 -20 -8z"/>
<path d="M7130 956 c7 -7 13 -7 20 0 6 6 3 10 -10 10 -13 0 -16 -4 -10 -10z"/>
<path d="M3236 927 c3 -10 9 -15 12 -12 3 3 0 11 -7 18 -10 9 -11 8 -5 -6z"/>
<path d="M6910 936 c0 -2 8 -10 18 -17 15 -13 16 -12 3 4 -13 16 -21 21 -21
13z"/>
<path d="M3400 900 c-9 -6 -10 -10 -3 -10 6 0 15 5 18 10 8 12 4 12 -15 0z"/>
<path d="M7016 902 c-3 -5 1 -9 9 -9 8 0 12 4 9 9 -3 4 -7 8 -9 8 -2 0 -6 -4
-9 -8z"/>
<path d="M3359 898 c-5 -18 -6 -38 -1 -34 7 8 12 36 6 36 -2 0 -4 -1 -5 -2z"/>
<path d="M6675 880 c-3 -5 -1 -10 4 -10 6 0 11 5 11 10 0 6 -2 10 -4 10 -3 0
-8 -4 -11 -10z"/>
<path d="M6719 873 c-12 -16 -12 -17 2 -6 9 7 20 9 24 5 5 -4 5 -1 1 6 -9 16
-11 15 -27 -5z"/>
<path d="M7067 879 c7 -7 15 -10 18 -7 3 3 -2 9 -12 12 -14 6 -15 5 -6 -5z"/>
<path d="M3586 858 c3 -5 10 -6 15 -3 13 9 11 12 -6 12 -8 0 -12 -4 -9 -9z"/>
<path d="M6636 853 c-6 -14 -5 -15 5 -6 7 7 10 15 7 18 -3 3 -9 -2 -12 -12z"/>
<path d="M6916 858 c3 -4 11 -5 19 -1 21 7 19 12 -4 10 -11 0 -18 -5 -15 -9z"/>
<path d="M3419 828 c-5 -18 -6 -38 -1 -34 7 8 12 36 6 36 -2 0 -4 -1 -5 -2z"/>
<path d="M6714 822 c4 -3 14 -7 22 -8 9 -1 13 0 10 4 -4 3 -14 7 -22 8 -9 1
-13 0 -10 -4z"/>
<path d="M6770 819 c0 -5 5 -7 10 -4 6 3 10 8 10 11 0 2 -4 4 -10 4 -5 0 -10
-5 -10 -11z"/>
<path d="M6853 823 c4 -3 1 -13 -6 -22 -11 -14 -10 -14 5 -2 16 12 16 31 1 31
-4 0 -3 -3 0 -7z"/>
<path d="M3717 795 c-4 -8 -3 -16 1 -19 4 -3 9 4 9 15 2 23 -3 25 -10 4z"/>
<path d="M3756 801 c-3 -4 6 -7 19 -7 14 0 22 2 19 5 -8 8 -34 10 -38 2z"/>
<path d="M6580 806 c0 -2 8 -10 18 -17 15 -13 16 -12 3 4 -13 16 -21 21 -21
13z"/>
<path d="M3535 791 c-3 -5 -2 -12 3 -15 5 -3 9 1 9 9 0 17 -3 19 -12 6z"/>
<path d="M3470 780 c0 -5 5 -10 11 -10 5 0 7 5 4 10 -3 6 -8 10 -11 10 -2 0
-4 -4 -4 -10z"/>
<path d="M3846 782 c-3 -5 1 -9 9 -9 8 0 12 4 9 9 -3 4 -7 8 -9 8 -2 0 -6 -4
-9 -8z"/>
<path d="M6720 780 c-12 -7 -10 -9 7 -7 12 0 19 5 17 9 -6 10 -6 10 -24 -2z"/>
<path d="M6401 756 c-9 -11 -9 -16 1 -22 7 -4 10 -4 6 1 -4 4 -3 14 3 22 6 7
9 13 6 13 -2 0 -10 -6 -16 -14z"/>
<path d="M6230 739 c0 -5 5 -7 10 -4 6 3 10 8 10 11 0 2 -4 4 -10 4 -5 0 -10
-5 -10 -11z"/>
<path d="M6199 738 c-5 -9 -5 -48 -1 -43 6 6 11 45 5 45 -2 0 -4 -1 -4 -2z"/>
<path d="M3866 722 c-2 -4 4 -8 14 -8 10 0 16 4 14 8 -3 4 -9 8 -14 8 -5 0
-11 -4 -14 -8z"/>
<path d="M6155 711 c-3 -5 -2 -12 3 -15 5 -3 9 1 9 9 0 17 -3 19 -12 6z"/>
<path d="M3985 699 c-3 -4 2 -6 10 -5 21 3 28 13 10 13 -9 0 -18 -4 -20 -8z"/>
<path d="M6415 700 c3 -5 8 -10 11 -10 2 0 4 5 4 10 0 6 -5 10 -11 10 -5 0 -7
-4 -4 -10z"/>
<path d="M6450 699 c0 -5 5 -7 10 -4 6 3 10 8 10 11 0 2 -4 4 -10 4 -5 0 -10
-5 -10 -11z"/>
<path d="M6494 696 c1 -8 5 -18 8 -22 4 -3 5 1 4 10 -1 8 -5 18 -8 22 -4 3 -5
-1 -4 -10z"/>
<path d="M3785 680 c-3 -6 1 -7 9 -4 18 7 21 14 7 14 -6 0 -13 -4 -16 -10z"/>
<path d="M4056 678 c3 -4 11 -5 19 -1 21 7 19 12 -4 10 -11 0 -18 -5 -15 -9z"/>
<path d="M4116 678 c3 -5 10 -6 15 -3 13 9 11 12 -6 12 -8 0 -12 -4 -9 -9z"/>
<path d="M6040 680 c-9 -6 -10 -10 -3 -10 6 0 15 5 18 10 8 12 4 12 -15 0z"/>
<path d="M3874 662 c4 -3 14 -7 22 -8 9 -1 13 0 10 4 -4 3 -14 7 -22 8 -9 1
-13 0 -10 -4z"/>
<path d="M5867 659 c7 -7 15 -10 18 -7 3 3 -2 9 -12 12 -14 6 -15 5 -6 -5z"/>
<path d="M5960 660 c-9 -6 -10 -10 -3 -10 6 0 15 5 18 10 8 12 4 12 -15 0z"/>
<path d="M5995 661 c-3 -5 -2 -12 3 -15 5 -3 9 1 9 9 0 17 -3 19 -12 6z"/>
<path d="M6107 659 c7 -7 15 -10 18 -7 3 3 -2 9 -12 12 -14 6 -15 5 -6 -5z"/>
<path d="M6330 660 c0 -5 5 -10 11 -10 5 0 7 5 4 10 -3 6 -8 10 -11 10 -2 0
-4 -4 -4 -10z"/>
<path d="M4173 645 c0 -8 4 -12 9 -9 5 3 6 10 3 15 -9 13 -12 11 -12 -6z"/>
<path d="M4454 646 c1 -8 5 -18 8 -22 4 -3 5 1 4 10 -1 8 -5 18 -8 22 -4 3 -5
-1 -4 -10z"/>
<path d="M5915 651 c-3 -5 -2 -12 3 -15 5 -3 9 1 9 9 0 17 -3 19 -12 6z"/>
<path d="M3830 639 c0 -5 5 -7 10 -4 6 3 10 8 10 11 0 2 -4 4 -10 4 -5 0 -10
-5 -10 -11z"/>
<path d="M3930 636 c7 -7 13 -7 20 0 6 6 3 10 -10 10 -13 0 -16 -4 -10 -10z"/>
<path d="M4230 641 c0 -6 4 -13 10 -16 6 -3 7 1 4 9 -7 18 -14 21 -14 7z"/>
<path d="M4016 622 c-3 -5 1 -9 9 -9 8 0 12 4 9 9 -3 4 -7 8 -9 8 -2 0 -6 -4
-9 -8z"/>
<path d="M4055 620 c3 -5 8 -10 11 -10 2 0 4 5 4 10 0 6 -5 10 -11 10 -5 0 -7
-4 -4 -10z"/>
<path d="M6130 619 c0 -5 5 -7 10 -4 6 3 10 8 10 11 0 2 -4 4 -10 4 -5 0 -10
-5 -10 -11z"/>
<path d="M5414 600 c0 -13 4 -16 10 -10 7 7 7 13 0 20 -6 6 -10 3 -10 -10z"/>
<path d="M4225 599 c-3 -4 2 -6 10 -5 21 3 28 13 10 13 -9 0 -18 -4 -20 -8z"/>
<path d="M4430 601 c0 -6 4 -13 10 -16 6 -3 7 1 4 9 -7 18 -14 21 -14 7z"/>
<path d="M4476 602 c-3 -5 1 -9 9 -9 8 0 12 4 9 9 -3 4 -7 8 -9 8 -2 0 -6 -4
-9 -8z"/>
<path d="M4613 596 c-3 -6 -3 -8 2 -4 4 4 13 3 20 -2 8 -7 12 -5 12 3 0 16
-25 18 -34 3z"/>
<path d="M4665 600 c-3 -6 1 -7 9 -4 18 7 21 14 7 14 -6 0 -13 -4 -16 -10z"/>
<path d="M4986 602 c-3 -5 1 -9 9 -9 8 0 12 4 9 9 -3 4 -7 8 -9 8 -2 0 -6 -4
-9 -8z"/>
<path d="M5026 599 c2 -4 13 -7 24 -6 23 2 17 10 -10 12 -10 1 -17 -2 -14 -6z"/>
<path d="M5110 606 c0 -2 7 -7 16 -10 8 -3 12 -2 9 4 -6 10 -25 14 -25 6z"/>
<path d="M5506 602 c-3 -5 1 -9 9 -9 8 0 12 4 9 9 -3 4 -7 8 -9 8 -2 0 -6 -4
-9 -8z"/>
<path d="M5736 598 c3 -4 11 -5 19 -1 21 7 19 12 -4 10 -11 0 -18 -5 -15 -9z"/>
<path d="M6195 600 c-3 -5 -1 -10 4 -10 6 0 11 5 11 10 0 6 -2 10 -4 10 -3 0
-8 -4 -11 -10z"/>
<path d="M5235 581 c-3 -5 -2 -12 3 -15 5 -3 9 1 9 9 0 17 -3 19 -12 6z"/>
<path d="M6010 579 c0 -5 5 -7 10 -4 6 3 10 8 10 11 0 2 -4 4 -10 4 -5 0 -10
-5 -10 -11z"/>
<path d="M5496 567 c3 -10 9 -15 12 -12 3 3 0 11 -7 18 -10 9 -11 8 -5 -6z"/>
<path d="M3940 560 c-9 -6 -10 -10 -3 -10 6 0 15 5 18 10 8 12 4 12 -15 0z"/>
<path d="M4470 561 c0 -6 4 -13 10 -16 6 -3 7 1 4 9 -7 18 -14 21 -14 7z"/>
<path d="M4775 560 c3 -5 8 -10 11 -10 2 0 4 5 4 10 0 6 -5 10 -11 10 -5 0 -7
-4 -4 -10z"/>
<path d="M5036 553 c-6 -14 -5 -15 5 -6 7 7 10 15 7 18 -3 3 -9 -2 -12 -12z"/>
<path d="M5060 566 c0 -2 8 -10 18 -17 15 -13 16 -12 3 4 -13 16 -21 21 -21
13z"/>
<path d="M5273 553 c0 -9 4 -10 14 -2 7 6 13 12 13 14 0 1 -6 2 -13 2 -8 0
-14 -6 -14 -14z"/>
<path d="M4375 540 c-3 -5 -1 -10 4 -10 6 0 11 5 11 10 0 6 -2 10 -4 10 -3 0
-8 -4 -11 -10z"/>
<path d="M5695 540 c3 -5 8 -10 11 -10 2 0 4 5 4 10 0 6 -5 10 -11 10 -5 0 -7
-4 -4 -10z"/>
<path d="M5730 539 c0 -5 5 -7 10 -4 6 3 10 8 10 11 0 2 -4 4 -10 4 -5 0 -10
-5 -10 -11z"/>
<path d="M5870 545 c0 -7 30 -13 34 -7 3 4 -4 9 -15 9 -10 1 -19 0 -19 -2z"/>
<path d="M5950 540 c0 -5 5 -10 11 -10 5 0 7 5 4 10 -3 6 -8 10 -11 10 -2 0
-4 -4 -4 -10z"/>
<path d="M5475 529 c-4 -6 -5 -12 -2 -15 2 -3 7 2 10 11 7 17 1 20 -8 4z"/>
<path d="M5550 536 c0 -2 8 -10 18 -17 15 -13 16 -12 3 4 -13 16 -21 21 -21
13z"/>
<path d="M4430 520 c0 -5 5 -10 11 -10 5 0 7 5 4 10 -3 6 -8 10 -11 10 -2 0
-4 -4 -4 -10z"/>
<path d="M5056 518 c3 -5 10 -6 15 -3 13 9 11 12 -6 12 -8 0 -12 -4 -9 -9z"/>
<path d="M4515 509 c-4 -6 -5 -12 -2 -15 2 -3 7 2 10 11 7 17 1 20 -8 4z"/>
<path d="M4693 505 c0 -8 4 -12 9 -9 5 3 6 10 3 15 -9 13 -12 11 -12 -6z"/>
<path d="M4773 505 c0 -8 4 -12 9 -9 5 3 6 10 3 15 -9 13 -12 11 -12 -6z"/>
<path d="M4555 500 c3 -5 8 -10 11 -10 2 0 4 5 4 10 0 6 -5 10 -11 10 -5 0 -7
-4 -4 -10z"/>
<path d="M4930 500 c0 -5 5 -10 11 -10 5 0 7 5 4 10 -3 6 -8 10 -11 10 -2 0
-4 -4 -4 -10z"/>
<path d="M5095 500 c3 -5 8 -10 11 -10 2 0 4 5 4 10 0 6 -5 10 -11 10 -5 0 -7
-4 -4 -10z"/>
<path d="M5610 500 c0 -5 5 -10 11 -10 5 0 7 5 4 10 -3 6 -8 10 -11 10 -2 0
-4 -4 -4 -10z"/>
<path d="M4635 480 c3 -5 8 -10 11 -10 2 0 4 5 4 10 0 6 -5 10 -11 10 -5 0 -7
-4 -4 -10z"/>
<path d="M4879 473 c-13 -16 -12 -17 4 -4 9 7 17 15 17 17 0 8 -8 3 -21 -13z"/>
<path d="M5206 482 c-3 -5 1 -9 9 -9 8 0 12 4 9 9 -3 4 -7 8 -9 8 -2 0 -6 -4
-9 -8z"/>
<path d="M5355 460 c-3 -5 -1 -10 4 -10 6 0 11 5 11 10 0 6 -2 10 -4 10 -3 0
-8 -4 -11 -10z"/>
<path d="M5546 442 c-3 -5 1 -9 9 -9 8 0 12 4 9 9 -3 4 -7 8 -9 8 -2 0 -6 -4
-9 -8z"/>
</g>
</svg>
