<svg xmlns="http://www.w3.org/2000/svg" class="spotifLyLogo" viewBox="0 0 9772.44 2931.02" stroke-linecap="round" stroke-linejoin="round"><path d="M1475.7-.33C666.36-.33 10.2 655.77 10.2 1465.14c0 809.44 656.15 1465.56 1465.5 1465.56 809.4 0 1465.5-656.12 1465.5-1465.56C2941.2 655.83 2285.13-.27 1475.69-.27l.03-.06zm6161.82 674c-89.75 0-162.6 72.64-162.6 162.4 0 89.81 72.86 162.56 162.6 162.56 89.73 0 162.5-72.75 162.5-162.56 0-89.74-72.81-162.4-162.4-162.4h-.1zm1152.99 678.06l324.03 776.97c-36.78 81.64-72.96 97.88-122.34 97.88-39.92 0-81.92-11.92-124.91-35.44a17.05 17.05 0 0 0-13.21-1.25 16.7 16.7 0 0 0-9.8 8.94l-76.8 168.5a16.48 16.48 0 0 0 7.16 21.43c80.17 43.42 152.53 61.94 241.97 61.94 167.3 0 259.76-77.94 341.28-287.6l393.06-1015.68a16.56 16.56 0 0 0-15.37-22.63H9499.7c-7.07 0-13.38 4.5-15.7 11.13l-241.61 690.16L9088 1350.2c-2.41-6.43-2.24-2.76-297.5 1.53zM1252.68 774.85c426.29-1.1 889.9 86.43 1229.78 288.2 65.14 38.65 86.48 122.79 47.87 187.84-38.5 65.13-122.82 86.6-187.74 47.94h-.04c-472.4-280.55-1251.6-306.34-1702.56-169.47-72.42 21.96-149-18.93-170.94-91.35-21.95-72.45 18.9-148.99 91.37-171 194.13-58.93 436.48-91.5 692.26-92.16zm2647.19 8.03c-273.21 0-464.03 163.98-464.04 398.57 0 251.56 164.62 340.62 449.1 409.38 242.13 55.77 283 102.5 283 186.03 0 92.55-82.64 150.09-215.63 150.09-147.7 0-268.17-49.73-402.93-166.44a17.39 17.39 0 0 0-12.16-3.96 16.44 16.44 0 0 0-11.38 5.84l-138.53 164.87a16.43 16.43 0 0 0 1.66 22.97c156.8 139.98 349.64 213.94 557.75 213.94 294.4 0 484.66-160.87 484.66-409.84.52-210.18-125.33-326.57-433.5-401.54l-.5-.21c-253.04-60.34-298.1-102.7-298.1-191.7 0-84.06 79.14-140.62 196.85-140.62 114.1 0 227.26 42.97 345.87 131.4a16.5 16.5 0 0 0 12.5 3.04 16.31 16.31 0 0 0 10.94-6.75l123.56-174.16a16.58 16.58 0 0 0-3.16-22.53c-141.17-113.28-300.15-168.38-485.96-168.38zm2992.22 69.38a16.63 16.63 0 0 0-16.63 16.6v254.87h-108.94c-9.11 0-16.5 7.47-16.5 16.63v194.72c0 9.13 7.39 16.59 16.5 16.59h108.94v503.84c0 203.62 101.35 306.85 301.22 306.85 81.27 0 148.7-16.78 212.25-52.81a16.47 16.47 0 0 0 8.34-14.35v-185.44c0-5.72-2.97-11.13-7.87-14.12a16.57 16.57 0 0 0-16.13-.75c-43.64 21.96-85.84 32.09-133 32.09-72.7 0-105.12-33-105.12-106.97v-468.25h249.3c9.16 0 16.54-7.44 16.54-16.6v-194.71c.35-9.15-7.01-16.6-16.28-16.6l-.25-.12h-249.31V868.85c0-9.13-7.38-16.6-16.53-16.6zM5097.39 1103c-127.6 0-232.28 50.27-318.6 153.25v-115.9a16.6 16.6 0 0 0-16.52-16.63h-226.6a16.61 16.61 0 0 0-16.55 16.63v1288.03c0 9.15 7.4 16.59 16.56 16.59h226.59c9.14 0 16.53-7.44 16.53-16.6v-406.6c86.33 96.89 191.02 144.23 318.6 144.23 237.1 0 477.12-182.52 477.12-531.43.35-349.01-239.75-531.57-476.87-531.57zm1092.35 0c-305.36 0-544.56 235.15-544.56 535.38 0 296.96 237.55 529.62 540.8 529.62 306.45 0 546.42-234.36 546.42-533.43 0-298.05-238.33-531.5-542.66-531.5v-.07zm1333.22 20.72a16.67 16.67 0 0 0-16.63 16.63v988.47c0 9.15 7.48 16.62 16.63 16.62h226.56c9.14 0 16.6-7.47 16.6-16.62v-988.41a16.54 16.54 0 0 0-16.63-16.6l.03-.1zm-6298.72 155.63c381.4-.93 768.4 95.47 1065.28 277.9 53.73 33.08 70.7 103.44 37.63 157.1-33.15 53.76-103.46 70.6-157.16 37.59-393.84-242.1-994.38-312.22-1460.32-170.78-60.42 18.25-124.25-15.8-142.59-76.12-18.2-60.43 15.87-124.13 76.19-142.5 182.95-55.52 381.19-82.71 580.97-83.2zm3820.69 53.56c154.17-.02 266.15 126.83 266.16 301.66 0 177.67-109.45 301.68-266.16 301.68-154.93 0-271.81-129.64-271.81-301.68 0-172.03 116.88-301.66 271.8-301.66zm1141.06 1.75c163.47 0 286.75 130.48 286.75 303.62 0 173.73-119 299.72-282.97 299.72h-.03c-162.42 0-284.84-130.47-284.84-303.5 0-173.75 118.19-299.84 281.09-299.84zm-4944.87 422.72c329.5-1.5 622.88 75.4 876.37 230.3 43.05 26.44 56.7 82.62 30.28 125.67-26.32 43.15-82.57 56.64-125.6 30.34-344.13-210.33-777.27-257.84-1287.4-141.31-49.16 11.27-98.18-19.55-109.38-68.7a91.2 91.2 0 0 1 68.72-109.33c191.9-43.87 374.4-66.18 547-66.97zm7167.62-636.37l-153.28-2.34c0-92.1 33-158.42 112.22-158.42 47.23 0 85.2 9.39 127.69 23.56a16.53 16.53 0 0 0 14.93-2.31 16.47 16.47 0 0 0 6.85-13.47V777.1c0-7.3-4.7-13.75-11.72-15.9-44.9-13.36-102.35-27.07-188.34-27.07-209.27 0-319.88 117.86-319.88 340.7v47.93h-108.84a16.66 16.66 0 0 0-16.63 16.6v195.72c0 9.13 7.49 16.59 16.63 16.59h108.84v777.16c0 9.15 7.39 16.62 16.53 16.62h226.56c9.16 0 16.63-7.47 16.63-16.62l-.74-775.88 151.6-1.77z"/><path id="L" d="M8527.52 832.87c-9.15 0-16.63 9.6-16.63 21.37v1270.33c0 11.76 7.48 21.36 16.63 21.36h226.56c9.14 0 16.6-9.6 16.6-21.36V854.31c0-5.66-1.73-11.09-4.85-15.1-3.12-4-7.37-6.24-11.78-6.22l.03-.12z"/></svg>